STARTFONT 2.1
FONT VT320 Firmware V1.2 Raw
SIZE 24 107 35
FONTBOUNDINGBOX 15 12 0 -2
STARTPROPERTIES 20
ADD_STYLE_NAME ""
AVERAGE_WIDTH 15
CAP_HEIGHT 7
CHARSET_ENCODING "1"
CHARSET_REGISTRY "iso10646"
DEFAULT_CHAR 9670
FAMILY_NAME "VT320 Firmware V1.2 Raw"
FONT_ASCENT 10
FONT_DESCENT 2
FOUNDRY "DEC"
PIXEL_ASPECT_RATIO "1:3.000000"
PIXEL_SIZE 12
POINT_SIZE 24
RESOLUTION_X 107
RESOLUTION_Y 35
SETWIDTH_NAME "Normal"
SLANT "r"
SPACING "c"
WEIGHT_NAME "Regular"
X_HEIGHT 5
ENDPROPERTIES
CHARS 261
STARTCHAR U+0020
ENCODING 32
SWIDTH 1250 0
DWIDTH 15 0
BBX 15 0 0 -2
BITMAP
ENDCHAR
STARTCHAR U+2401
ENCODING 9217
SWIDTH 1250 0
DWIDTH 15 0
BBX 15 10 0 -1
BITMAP
1F00
3000
1E00
0300
3E00
00CC
00CC
00FC
00CC
00CC
ENDCHAR
STARTCHAR U+2402
ENCODING 9218
SWIDTH 1250 0
DWIDTH 15 0
BBX 15 10 0 -1
BITMAP
1F00
3000
1E00
0300
3E00
00CC
0078
0030
0078
00CC
ENDCHAR
STARTCHAR U+2403
ENCODING 9219
SWIDTH 1250 0
DWIDTH 15 0
BBX 15 10 0 -1
BITMAP
3E00
3000
3E00
3000
3E00
00CC
0078
0030
0078
00CC
ENDCHAR
STARTCHAR U+2404
ENCODING 9220
SWIDTH 1250 0
DWIDTH 15 0
BBX 15 10 0 -1
BITMAP
3E00
3000
3E00
3000
3E00
00FC
0030
0030
0030
0030
ENDCHAR
STARTCHAR U+2405
ENCODING 9221
SWIDTH 1250 0
DWIDTH 15 0
BBX 15 11 0 -2
BITMAP
3E00
3000
3E00
3000
3E00
0078
00CC
00CC
0078
001C
0000
ENDCHAR
STARTCHAR U+2406
ENCODING 9222
SWIDTH 1250 0
DWIDTH 15 0
BBX 15 10 0 -1
BITMAP
1E00
3300
3F00
3300
3300
00CC
00D8
00F0
00D8
00CC
ENDCHAR
STARTCHAR U+2407
ENCODING 9223
SWIDTH 1250 0
DWIDTH 15 0
BBX 15 10 0 -1
BITMAP
3E00
3300
3E00
3300
3E00
0060
0060
0060
0060
007C
ENDCHAR
STARTCHAR U+2408
ENCODING 9224
SWIDTH 1250 0
DWIDTH 15 0
BBX 15 10 0 -1
BITMAP
3E00
3300
3E00
3300
3E00
007C
00C0
0078
000C
00F8
ENDCHAR
STARTCHAR U+2409
ENCODING 9225
SWIDTH 1250 0
DWIDTH 15 0
BBX 15 10 0 -1
BITMAP
3300
3300
3F00
3300
3300
00FC
0030
0030
0030
0030
ENDCHAR
STARTCHAR U+240A
ENCODING 9226
SWIDTH 1250 0
DWIDTH 15 0
BBX 15 10 0 -1
BITMAP
3000
3000
3000
3000
3C00
007C
0060
007C
0060
0060
ENDCHAR
STARTCHAR U+240B
ENCODING 9227
SWIDTH 1250 0
DWIDTH 15 0
BBX 15 10 0 -1
BITMAP
3300
3300
3300
1E00
0C00
00FC
0030
0030
0030
0030
ENDCHAR
STARTCHAR U+240C
ENCODING 9228
SWIDTH 1250 0
DWIDTH 15 0
BBX 15 10 0 -1
BITMAP
3E00
3000
3E00
3000
3000
007C
0060
007C
0060
0060
ENDCHAR
STARTCHAR U+240D
ENCODING 9229
SWIDTH 1250 0
DWIDTH 15 0
BBX 15 10 0 -1
BITMAP
1E00
3000
3000
3000
1E00
0078
006C
006C
0078
006C
ENDCHAR
STARTCHAR U+240E
ENCODING 9230
SWIDTH 1250 0
DWIDTH 15 0
BBX 15 10 0 -1
BITMAP
1F00
3000
1E00
0300
3E00
0078
00CC
00CC
00CC
0078
ENDCHAR
STARTCHAR U+240F
ENCODING 9231
SWIDTH 1250 0
DWIDTH 15 0
BBX 15 10 0 -1
BITMAP
1F00
3000
1E00
0300
3E00
0078
0030
0030
0030
0078
ENDCHAR
STARTCHAR U+2410
ENCODING 9232
SWIDTH 1250 0
DWIDTH 15 0
BBX 15 10 0 -1
BITMAP
3E00
3300
3300
3300
3E00
0060
0060
0060
0060
007C
ENDCHAR
STARTCHAR U+2411
ENCODING 9233
SWIDTH 1250 0
DWIDTH 15 0
BBX 15 10 0 -1
BITMAP
3E00
3300
3300
3300
3E00
0018
0078
0018
0018
0018
ENDCHAR
STARTCHAR U+2412
ENCODING 9234
SWIDTH 1250 0
DWIDTH 15 0
BBX 15 10 0 -1
BITMAP
3E00
3300
3300
3300
3E00
0078
000C
0038
0060
007C
ENDCHAR
STARTCHAR U+2413
ENCODING 9235
SWIDTH 1250 0
DWIDTH 15 0
BBX 15 10 0 -1
BITMAP
3E00
3300
3300
3300
3E00
0078
000C
0078
000C
0078
ENDCHAR
STARTCHAR U+2414
ENCODING 9236
SWIDTH 1250 0
DWIDTH 15 0
BBX 15 10 0 -1
BITMAP
3E00
3300
3300
3300
3E00
0038
0078
00D8
01FC
0018
ENDCHAR
STARTCHAR U+2415
ENCODING 9237
SWIDTH 1250 0
DWIDTH 15 0
BBX 15 10 0 -1
BITMAP
3300
3B00
3700
3700
3300
00CC
00D8
00F0
00D8
00CC
ENDCHAR
STARTCHAR U+2416
ENCODING 9238
SWIDTH 1250 0
DWIDTH 15 0
BBX 15 10 0 -1
BITMAP
1F00
3000
1E00
0300
3E00
00CC
00CC
0078
0030
0030
ENDCHAR
STARTCHAR U+2417
ENCODING 9239
SWIDTH 1250 0
DWIDTH 15 0
BBX 15 11 0 -2
BITMAP
3E00
3000
3E00
3000
3E00
00F8
00CC
00F8
00CC
00F8
0000
ENDCHAR
STARTCHAR U+2418
ENCODING 9240
SWIDTH 1250 0
DWIDTH 15 0
BBX 15 10 0 -1
BITMAP
1E00
3000
3000
3000
1E00
00CC
00EC
00DC
00DC
00CC
ENDCHAR
STARTCHAR U+2419
ENCODING 9241
SWIDTH 1250 0
DWIDTH 15 0
BBX 15 10 0 -1
BITMAP
3E00
3000
3E00
3000
3E00
018C
01DC
01AC
018C
018C
ENDCHAR
STARTCHAR U+2426
ENCODING 9254
SWIDTH 1250 0
DWIDTH 15 0
BBX 15 11 0 -2
BITMAP
07E0
1FF8
3C3C
3C00
3C00
1FC0
07F0
00F0
0000
00F0
00F0
ENDCHAR
STARTCHAR U+241B
ENCODING 9243
SWIDTH 1250 0
DWIDTH 15 0
BBX 15 10 0 -1
BITMAP
3E00
3000
3E00
3000
3E00
0078
00C0
00C0
00C0
0078
ENDCHAR
STARTCHAR U+241C
ENCODING 9244
SWIDTH 1250 0
DWIDTH 15 0
BBX 15 10 0 -1
BITMAP
1F00
1800
1F00
1800
1800
007C
00C0
0078
000C
00F8
ENDCHAR
STARTCHAR U+241D
ENCODING 9245
SWIDTH 1250 0
DWIDTH 15 0
BBX 15 10 0 -1
BITMAP
1E00
3000
3300
3300
1E00
0078
00C0
0070
0018
00F0
ENDCHAR
STARTCHAR U+241E
ENCODING 9246
SWIDTH 1250 0
DWIDTH 15 0
BBX 15 10 0 -1
BITMAP
3E00
3300
3C00
3600
3300
007C
00C0
0078
000C
00F8
ENDCHAR
STARTCHAR U+241F
ENCODING 9247
SWIDTH 1250 0
DWIDTH 15 0
BBX 15 10 0 -1
BITMAP
3300
3300
3300
3300
1E00
007C
00C0
0078
000C
00F8
ENDCHAR
STARTCHAR U+2426
ENCODING 9254
SWIDTH 1250 0
DWIDTH 15 0
BBX 15 11 0 -2
BITMAP
07E0
1FF8
3C3C
3C00
3C00
1FC0
07F0
00F0
0000
00F0
00F0
ENDCHAR
STARTCHAR U+0021
ENCODING 33
SWIDTH 1250 0
DWIDTH 15 0
BBX 15 7 0 0
BITMAP
01C0
01C0
01C0
01C0
01C0
0000
01C0
ENDCHAR
STARTCHAR U+0022
ENCODING 34
SWIDTH 1250 0
DWIDTH 15 0
BBX 15 3 0 5
BITMAP
0E38
0E38
0000
ENDCHAR
STARTCHAR U+0023
ENCODING 35
SWIDTH 1250 0
DWIDTH 15 0
BBX 15 6 0 0
BITMAP
0E70
3FFC
0E70
0E70
3FFC
0E70
ENDCHAR
STARTCHAR U+0024
ENCODING 36
SWIDTH 1250 0
DWIDTH 15 0
BBX 15 7 0 0
BITMAP
0180
0FF0
3980
0FF0
019C
0FF0
0180
ENDCHAR
STARTCHAR U+0025
ENCODING 37
SWIDTH 1250 0
DWIDTH 15 0
BBX 15 7 0 0
BITMAP
1C30
3660
1CC0
0180
0338
066C
0C38
ENDCHAR
STARTCHAR U+0026
ENCODING 38
SWIDTH 1250 0
DWIDTH 15 0
BBX 15 7 0 0
BITMAP
07C0
0C60
078C
1CCC
3870
38D8
0F9C
ENDCHAR
STARTCHAR U+0027
ENCODING 39
SWIDTH 1250 0
DWIDTH 15 0
BBX 15 3 0 5
BITMAP
01C0
0700
0000
ENDCHAR
STARTCHAR U+0028
ENCODING 40
SWIDTH 1250 0
DWIDTH 15 0
BBX 15 9 0 -1
BITMAP
0060
0180
0300
0700
0700
0700
0300
0180
0060
ENDCHAR
STARTCHAR U+0029
ENCODING 41
SWIDTH 1250 0
DWIDTH 15 0
BBX 15 9 0 -1
BITMAP
0600
0180
00C0
00E0
00E0
00E0
00C0
0180
0600
ENDCHAR
STARTCHAR U+002A
ENCODING 42
SWIDTH 1250 0
DWIDTH 15 0
BBX 15 5 0 1
BITMAP
0180
1DB8
03C0
1DB8
0180
ENDCHAR
STARTCHAR U+002B
ENCODING 43
SWIDTH 1250 0
DWIDTH 15 0
BBX 15 5 0 1
BITMAP
01C0
01C0
1FFC
01C0
01C0
ENDCHAR
STARTCHAR U+002C
ENCODING 44
SWIDTH 1250 0
DWIDTH 15 0
BBX 15 4 0 -2
BITMAP
00F0
00F0
03C0
0F00
ENDCHAR
STARTCHAR U+002D
ENCODING 45
SWIDTH 1250 0
DWIDTH 15 0
BBX 15 1 0 3
BITMAP
0FF8
ENDCHAR
STARTCHAR U+002E
ENCODING 46
SWIDTH 1250 0
DWIDTH 15 0
BBX 15 2 0 0
BITMAP
03C0
03C0
ENDCHAR
STARTCHAR U+002F
ENCODING 47
SWIDTH 1250 0
DWIDTH 15 0
BBX 15 9 0 -1
BITMAP
001C
0038
0070
00E0
01C0
0380
0700
0E00
1C00
ENDCHAR
STARTCHAR U+0030
ENCODING 48
SWIDTH 1250 0
DWIDTH 15 0
BBX 15 7 0 0
BITMAP
03C0
0C30
1C38
1C38
1C38
0C30
03C0
ENDCHAR
STARTCHAR U+0031
ENCODING 49
SWIDTH 1250 0
DWIDTH 15 0
BBX 15 7 0 0
BITMAP
01C0
07C0
01C0
01C0
01C0
01C0
0FF8
ENDCHAR
STARTCHAR U+0032
ENCODING 50
SWIDTH 1250 0
DWIDTH 15 0
BBX 15 7 0 0
BITMAP
0FE0
1838
0038
0070
01C0
0700
1FF8
ENDCHAR
STARTCHAR U+0033
ENCODING 51
SWIDTH 1250 0
DWIDTH 15 0
BBX 15 7 0 0
BITMAP
07F0
1C1C
001C
01F0
001C
1C1C
07F0
ENDCHAR
STARTCHAR U+0034
ENCODING 52
SWIDTH 1250 0
DWIDTH 15 0
BBX 15 7 0 0
BITMAP
01F0
0670
0C70
1870
3FFC
0070
0070
ENDCHAR
STARTCHAR U+0035
ENCODING 53
SWIDTH 1250 0
DWIDTH 15 0
BBX 15 7 0 0
BITMAP
1FF8
1C00
1DE0
1E38
001C
1838
07E0
ENDCHAR
STARTCHAR U+0036
ENCODING 54
SWIDTH 1250 0
DWIDTH 15 0
BBX 15 7 0 0
BITMAP
01F0
0E00
1C00
1DF0
1E1C
0E1C
03F0
ENDCHAR
STARTCHAR U+0037
ENCODING 55
SWIDTH 1250 0
DWIDTH 15 0
BBX 15 7 0 0
BITMAP
1FF8
0038
0070
00E0
01C0
0380
0700
ENDCHAR
STARTCHAR U+0038
ENCODING 56
SWIDTH 1250 0
DWIDTH 15 0
BBX 15 7 0 0
BITMAP
07E0
1C38
1C38
0FF0
1C38
1C38
07E0
ENDCHAR
STARTCHAR U+0039
ENCODING 57
SWIDTH 1250 0
DWIDTH 15 0
BBX 15 7 0 0
BITMAP
07E0
1C38
1C3C
07DC
001C
0038
07E0
ENDCHAR
STARTCHAR U+003A
ENCODING 58
SWIDTH 1250 0
DWIDTH 15 0
BBX 15 6 0 0
BITMAP
03C0
03C0
0000
0000
03C0
03C0
ENDCHAR
STARTCHAR U+003B
ENCODING 59
SWIDTH 1250 0
DWIDTH 15 0
BBX 15 8 0 -2
BITMAP
01E0
01E0
0000
0000
01E0
01E0
0780
1E00
ENDCHAR
STARTCHAR U+003C
ENCODING 60
SWIDTH 1250 0
DWIDTH 15 0
BBX 15 7 0 0
BITMAP
0038
00E0
0380
0E00
0380
00E0
0038
ENDCHAR
STARTCHAR U+003D
ENCODING 61
SWIDTH 1250 0
DWIDTH 15 0
BBX 15 3 0 2
BITMAP
0FF8
0000
0FF8
ENDCHAR
STARTCHAR U+003E
ENCODING 62
SWIDTH 1250 0
DWIDTH 15 0
BBX 15 7 0 0
BITMAP
1C00
0700
01C0
0070
01C0
0700
1C00
ENDCHAR
STARTCHAR U+003F
ENCODING 63
SWIDTH 1250 0
DWIDTH 15 0
BBX 15 7 0 0
BITMAP
07F0
1C38
0038
00E0
0380
0000
0380
ENDCHAR
STARTCHAR U+0040
ENCODING 64
SWIDTH 1250 0
DWIDTH 15 0
BBX 15 8 0 0
BITMAP
07F0
1C38
39FC
399C
399C
38F8
1C00
07F8
ENDCHAR
STARTCHAR U+0041
ENCODING 65
SWIDTH 1250 0
DWIDTH 15 0
BBX 15 7 0 0
BITMAP
03C0
07E0
0E70
1C38
1FF8
381C
381C
ENDCHAR
STARTCHAR U+0042
ENCODING 66
SWIDTH 1250 0
DWIDTH 15 0
BBX 15 7 0 0
BITMAP
3FF8
381C
381C
3FF0
381C
381C
3FF8
ENDCHAR
STARTCHAR U+0043
ENCODING 67
SWIDTH 1250 0
DWIDTH 15 0
BBX 15 7 0 0
BITMAP
07F0
1C1C
3800
3800
3800
1C1C
07F0
ENDCHAR
STARTCHAR U+0044
ENCODING 68
SWIDTH 1250 0
DWIDTH 15 0
BBX 15 7 0 0
BITMAP
3FE0
3838
381C
381C
381C
3838
3FE0
ENDCHAR
STARTCHAR U+0045
ENCODING 69
SWIDTH 1250 0
DWIDTH 15 0
BBX 15 7 0 0
BITMAP
1FF8
1C00
1C00
1FE0
1C00
1C00
1FF8
ENDCHAR
STARTCHAR U+0046
ENCODING 70
SWIDTH 1250 0
DWIDTH 15 0
BBX 15 7 0 0
BITMAP
1FF8
1C00
1C00
1FE0
1C00
1C00
1C00
ENDCHAR
STARTCHAR U+0047
ENCODING 71
SWIDTH 1250 0
DWIDTH 15 0
BBX 15 7 0 0
BITMAP
07F0
1C1C
3800
387C
381C
1C1C
07FC
ENDCHAR
STARTCHAR U+0048
ENCODING 72
SWIDTH 1250 0
DWIDTH 15 0
BBX 15 7 0 0
BITMAP
381C
381C
381C
3FFC
381C
381C
381C
ENDCHAR
STARTCHAR U+0049
ENCODING 73
SWIDTH 1250 0
DWIDTH 15 0
BBX 15 7 0 0
BITMAP
0FF8
01C0
01C0
01C0
01C0
01C0
0FF8
ENDCHAR
STARTCHAR U+004A
ENCODING 74
SWIDTH 1250 0
DWIDTH 15 0
BBX 15 7 0 0
BITMAP
01F8
0070
0070
0070
0070
3870
0FE0
ENDCHAR
STARTCHAR U+004B
ENCODING 75
SWIDTH 1250 0
DWIDTH 15 0
BBX 15 7 0 0
BITMAP
1C1C
1C38
1CE0
1FC0
1CE0
1C38
1C1C
ENDCHAR
STARTCHAR U+004C
ENCODING 76
SWIDTH 1250 0
DWIDTH 15 0
BBX 15 7 0 0
BITMAP
1C00
1C00
1C00
1C00
1C00
1C00
1FF8
ENDCHAR
STARTCHAR U+004D
ENCODING 77
SWIDTH 1250 0
DWIDTH 15 0
BBX 15 7 0 0
BITMAP
3C3C
3E7C
3A5C
3BDC
399C
399C
381C
ENDCHAR
STARTCHAR U+004E
ENCODING 78
SWIDTH 1250 0
DWIDTH 15 0
BBX 15 7 0 0
BITMAP
381C
3C1C
3F1C
3B9C
38FC
387C
381C
ENDCHAR
STARTCHAR U+004F
ENCODING 79
SWIDTH 1250 0
DWIDTH 15 0
BBX 15 7 0 0
BITMAP
07E0
1C38
381C
381C
381C
1C38
07E0
ENDCHAR
STARTCHAR U+0050
ENCODING 80
SWIDTH 1250 0
DWIDTH 15 0
BBX 15 7 0 0
BITMAP
1FF0
1C1C
1C1C
1FF0
1C00
1C00
1C00
ENDCHAR
STARTCHAR U+0051
ENCODING 81
SWIDTH 1250 0
DWIDTH 15 0
BBX 15 9 0 -2
BITMAP
07E0
1C38
381C
381C
39DC
1CF8
07E0
0030
0018
ENDCHAR
STARTCHAR U+0052
ENCODING 82
SWIDTH 1250 0
DWIDTH 15 0
BBX 15 7 0 0
BITMAP
3FF0
383C
3838
3FE0
3870
3838
381C
ENDCHAR
STARTCHAR U+0053
ENCODING 83
SWIDTH 1250 0
DWIDTH 15 0
BBX 15 7 0 0
BITMAP
0FF0
381C
3800
0FF0
001C
381C
0FF0
ENDCHAR
STARTCHAR U+0054
ENCODING 84
SWIDTH 1250 0
DWIDTH 15 0
BBX 15 7 0 0
BITMAP
1FFC
01C0
01C0
01C0
01C0
01C0
01C0
ENDCHAR
STARTCHAR U+0055
ENCODING 85
SWIDTH 1250 0
DWIDTH 15 0
BBX 15 7 0 0
BITMAP
381C
381C
381C
381C
381C
381C
0FF0
ENDCHAR
STARTCHAR U+0056
ENCODING 86
SWIDTH 1250 0
DWIDTH 15 0
BBX 15 7 0 0
BITMAP
1C1C
1C1C
1C1C
0E38
0770
03E0
01C0
ENDCHAR
STARTCHAR U+0057
ENCODING 87
SWIDTH 1250 0
DWIDTH 15 0
BBX 15 7 0 0
BITMAP
381C
381C
399C
399C
399C
1BD8
1E78
ENDCHAR
STARTCHAR U+0058
ENCODING 88
SWIDTH 1250 0
DWIDTH 15 0
BBX 15 7 0 0
BITMAP
381C
1C38
0660
03C0
0660
1C38
381C
ENDCHAR
STARTCHAR U+0059
ENCODING 89
SWIDTH 1250 0
DWIDTH 15 0
BBX 15 7 0 0
BITMAP
1C1C
1C1C
0E38
07F0
01C0
01C0
01C0
ENDCHAR
STARTCHAR U+005A
ENCODING 90
SWIDTH 1250 0
DWIDTH 15 0
BBX 15 7 0 0
BITMAP
1FF8
0038
0070
01C0
0700
1C00
1FF8
ENDCHAR
STARTCHAR U+005B
ENCODING 91
SWIDTH 1250 0
DWIDTH 15 0
BBX 15 9 0 -1
BITMAP
03F0
0380
0380
0380
0380
0380
0380
0380
03F0
ENDCHAR
STARTCHAR U+005C
ENCODING 92
SWIDTH 1250 0
DWIDTH 15 0
BBX 15 9 0 -1
BITMAP
3800
1C00
0E00
0700
0380
01C0
00E0
0070
0038
ENDCHAR
STARTCHAR U+005D
ENCODING 93
SWIDTH 1250 0
DWIDTH 15 0
BBX 15 9 0 -1
BITMAP
07E0
00E0
00E0
00E0
00E0
00E0
00E0
00E0
07E0
ENDCHAR
STARTCHAR U+005E
ENCODING 94
SWIDTH 1250 0
DWIDTH 15 0
BBX 15 4 0 3
BITMAP
03E0
0770
0E38
0000
ENDCHAR
STARTCHAR U+005F
ENCODING 95
SWIDTH 1250 0
DWIDTH 15 0
BBX 15 1 0 0
BITMAP
3FFC
ENDCHAR
STARTCHAR U+0060
ENCODING 96
SWIDTH 1250 0
DWIDTH 15 0
BBX 15 3 0 5
BITMAP
0700
01C0
0000
ENDCHAR
STARTCHAR U+0061
ENCODING 97
SWIDTH 1250 0
DWIDTH 15 0
BBX 15 5 0 0
BITMAP
07E0
0038
0FF8
1C38
0FDC
ENDCHAR
STARTCHAR U+0062
ENCODING 98
SWIDTH 1250 0
DWIDTH 15 0
BBX 15 7 0 0
BITMAP
3800
3800
3BE0
3838
381C
3838
37E0
ENDCHAR
STARTCHAR U+0063
ENCODING 99
SWIDTH 1250 0
DWIDTH 15 0
BBX 15 5 0 0
BITMAP
07F0
1C1C
3800
1C1C
07F0
ENDCHAR
STARTCHAR U+0064
ENCODING 100
SWIDTH 1250 0
DWIDTH 15 0
BBX 15 7 0 0
BITMAP
001C
001C
07DC
1C3C
381C
1C3C
07DC
ENDCHAR
STARTCHAR U+0065
ENCODING 101
SWIDTH 1250 0
DWIDTH 15 0
BBX 15 5 0 0
BITMAP
07F0
1C1C
3FFC
1C00
07F8
ENDCHAR
STARTCHAR U+0066
ENCODING 102
SWIDTH 1250 0
DWIDTH 15 0
BBX 15 7 0 0
BITMAP
03F8
0700
1FF8
0700
0700
0700
0FC0
ENDCHAR
STARTCHAR U+0067
ENCODING 103
SWIDTH 1250 0
DWIDTH 15 0
BBX 15 7 0 -2
BITMAP
07FC
1C1C
381C
1C3C
07DC
0038
07E0
ENDCHAR
STARTCHAR U+0068
ENCODING 104
SWIDTH 1250 0
DWIDTH 15 0
BBX 15 7 0 0
BITMAP
3800
3800
3BF0
3C1C
381C
381C
381C
ENDCHAR
STARTCHAR U+0069
ENCODING 105
SWIDTH 1250 0
DWIDTH 15 0
BBX 15 7 0 0
BITMAP
01C0
0000
07C0
01C0
01C0
01C0
0FF8
ENDCHAR
STARTCHAR U+006A
ENCODING 106
SWIDTH 1250 0
DWIDTH 15 0
BBX 15 9 0 -2
BITMAP
00E0
0000
07E0
00E0
00E0
00E0
00E0
01C0
1F80
ENDCHAR
STARTCHAR U+006B
ENCODING 107
SWIDTH 1250 0
DWIDTH 15 0
BBX 15 7 0 0
BITMAP
3800
3800
3878
39C0
3F80
39E0
3C7C
ENDCHAR
STARTCHAR U+006C
ENCODING 108
SWIDTH 1250 0
DWIDTH 15 0
BBX 15 7 0 0
BITMAP
07C0
01C0
01C0
01C0
01C0
01C0
0FF8
ENDCHAR
STARTCHAR U+006D
ENCODING 109
SWIDTH 1250 0
DWIDTH 15 0
BBX 15 5 0 0
BITMAP
3778
399C
399C
399C
399C
ENDCHAR
STARTCHAR U+006E
ENCODING 110
SWIDTH 1250 0
DWIDTH 15 0
BBX 15 5 0 0
BITMAP
37F0
3C1C
381C
381C
381C
ENDCHAR
STARTCHAR U+006F
ENCODING 111
SWIDTH 1250 0
DWIDTH 15 0
BBX 15 5 0 0
BITMAP
07E0
1C38
381C
1C38
07E0
ENDCHAR
STARTCHAR U+0070
ENCODING 112
SWIDTH 1250 0
DWIDTH 15 0
BBX 15 7 0 -2
BITMAP
3BE0
3C38
381C
3838
3FE0
3800
3800
ENDCHAR
STARTCHAR U+0071
ENCODING 113
SWIDTH 1250 0
DWIDTH 15 0
BBX 15 7 0 -2
BITMAP
07FC
1C1C
381C
1C3C
07DC
001C
001C
ENDCHAR
STARTCHAR U+0072
ENCODING 114
SWIDTH 1250 0
DWIDTH 15 0
BBX 15 5 0 0
BITMAP
3EF8
0F1C
0E00
0E00
3F80
ENDCHAR
STARTCHAR U+0073
ENCODING 115
SWIDTH 1250 0
DWIDTH 15 0
BBX 15 5 0 0
BITMAP
07F8
1E00
03F0
003C
0FF0
ENDCHAR
STARTCHAR U+0074
ENCODING 116
SWIDTH 1250 0
DWIDTH 15 0
BBX 15 7 0 0
BITMAP
0380
0380
1FF8
0380
0380
0380
03F8
ENDCHAR
STARTCHAR U+0075
ENCODING 117
SWIDTH 1250 0
DWIDTH 15 0
BBX 15 5 0 0
BITMAP
381C
381C
381C
3C3C
0FDC
ENDCHAR
STARTCHAR U+0076
ENCODING 118
SWIDTH 1250 0
DWIDTH 15 0
BBX 15 5 0 0
BITMAP
1C1C
0E38
0770
03E0
01C0
ENDCHAR
STARTCHAR U+0077
ENCODING 119
SWIDTH 1250 0
DWIDTH 15 0
BBX 15 5 0 0
BITMAP
399C
399C
1BD8
1E78
0C30
ENDCHAR
STARTCHAR U+0078
ENCODING 120
SWIDTH 1250 0
DWIDTH 15 0
BBX 15 5 0 0
BITMAP
1C38
0E70
03C0
0E70
1C38
ENDCHAR
STARTCHAR U+0079
ENCODING 121
SWIDTH 1250 0
DWIDTH 15 0
BBX 15 7 0 -2
BITMAP
381C
1C38
0E70
0760
03C0
0380
1E00
ENDCHAR
STARTCHAR U+007A
ENCODING 122
SWIDTH 1250 0
DWIDTH 15 0
BBX 15 5 0 0
BITMAP
1FF8
0070
0380
1C00
1FF8
ENDCHAR
STARTCHAR U+007B
ENCODING 123
SWIDTH 1250 0
DWIDTH 15 0
BBX 15 9 0 -1
BITMAP
0038
00E0
0180
0180
0E00
0180
0180
00E0
0038
ENDCHAR
STARTCHAR U+007C
ENCODING 124
SWIDTH 1250 0
DWIDTH 15 0
BBX 15 9 0 -1
BITMAP
01C0
01C0
01C0
01C0
01C0
01C0
01C0
01C0
01C0
ENDCHAR
STARTCHAR U+007D
ENCODING 125
SWIDTH 1250 0
DWIDTH 15 0
BBX 15 9 0 -1
BITMAP
1C00
0700
0180
0180
0070
0180
0180
0700
1C00
ENDCHAR
STARTCHAR U+007E
ENCODING 126
SWIDTH 1250 0
DWIDTH 15 0
BBX 15 4 0 3
BITMAP
0F1C
1F9C
39F8
38F0
ENDCHAR
STARTCHAR U+2421
ENCODING 9249
SWIDTH 1250 0
DWIDTH 15 0
BBX 15 10 0 -1
BITMAP
3E00
3300
3300
3300
3E00
00FC
0030
0030
0030
0030
ENDCHAR
STARTCHAR U+00A1
ENCODING 161
SWIDTH 1250 0
DWIDTH 15 0
BBX 15 7 0 -1
BITMAP
01C0
0000
01C0
01C0
01C0
01C0
01C0
ENDCHAR
STARTCHAR U+00A2
ENCODING 162
SWIDTH 1250 0
DWIDTH 15 0
BBX 15 9 0 -1
BITMAP
0180
0180
07F0
1C1C
3800
1C1C
07F0
0180
0180
ENDCHAR
STARTCHAR U+00A3
ENCODING 163
SWIDTH 1250 0
DWIDTH 15 0
BBX 15 7 0 0
BITMAP
03F0
0E18
0E00
3F80
0E00
0E0C
39F8
ENDCHAR
STARTCHAR U+00A4
ENCODING 164
SWIDTH 1250 0
DWIDTH 15 0
BBX 15 6 0 0
BITMAP
1818
0FF0
1818
1818
0FF0
1818
ENDCHAR
STARTCHAR U+00A5
ENCODING 165
SWIDTH 1250 0
DWIDTH 15 0
BBX 15 7 0 0
BITMAP
1E3C
0E38
0770
0FF8
01C0
0FF8
01C0
ENDCHAR
STARTCHAR U+00A6
ENCODING 166
SWIDTH 1250 0
DWIDTH 15 0
BBX 15 9 0 -1
BITMAP
01C0
01C0
01C0
01C0
0000
01C0
01C0
01C0
01C0
ENDCHAR
STARTCHAR U+00A7
ENCODING 167
SWIDTH 1250 0
DWIDTH 15 0
BBX 15 8 0 -1
BITMAP
07F8
1C00
07E0
0C38
0E18
03F0
001C
0FF0
ENDCHAR
STARTCHAR U+00A8
ENCODING 168
SWIDTH 1250 0
DWIDTH 15 0
BBX 15 1 0 8
BITMAP
1C38
ENDCHAR
STARTCHAR U+00A9
ENCODING 169
SWIDTH 1250 0
DWIDTH 15 0
BBX 15 9 0 -1
BITMAP
07E0
0810
19D8
1B18
1B18
1B18
19D8
0810
07E0
ENDCHAR
STARTCHAR U+00AA
ENCODING 170
SWIDTH 1250 0
DWIDTH 15 0
BBX 15 7 0 1
BITMAP
07E0
0030
07F0
0C30
07F0
0000
0FF0
ENDCHAR
STARTCHAR U+00AB
ENCODING 171
SWIDTH 1250 0
DWIDTH 15 0
BBX 15 5 0 0
BITMAP
0738
1CE0
3180
1CE0
0738
ENDCHAR
STARTCHAR U+00AC
ENCODING 172
SWIDTH 1250 0
DWIDTH 15 0
BBX 15 3 0 2
BITMAP
3FFC
000C
000C
ENDCHAR
STARTCHAR U+00AD
ENCODING 173
SWIDTH 1250 0
DWIDTH 15 0
BBX 15 1 0 3
BITMAP
0FF0
ENDCHAR
STARTCHAR U+00AE
ENCODING 174
SWIDTH 1250 0
DWIDTH 15 0
BBX 15 9 0 -1
BITMAP
0FF0
1008
37CC
366C
37CC
366C
366C
1008
0FF0
ENDCHAR
STARTCHAR U+00AF
ENCODING 175
SWIDTH 1250 0
DWIDTH 15 0
BBX 15 1 0 8
BITMAP
07E0
ENDCHAR
STARTCHAR U+00B0
ENCODING 176
SWIDTH 1250 0
DWIDTH 15 0
BBX 15 4 0 4
BITMAP
0000
07E0
0C30
07E0
ENDCHAR
STARTCHAR U+00B1
ENCODING 177
SWIDTH 1250 0
DWIDTH 15 0
BBX 15 7 0 0
BITMAP
01C0
01C0
1FFC
01C0
01C0
0000
1FFC
ENDCHAR
STARTCHAR U+00B2
ENCODING 178
SWIDTH 1250 0
DWIDTH 15 0
BBX 15 5 0 3
BITMAP
07C0
0060
0180
0600
07E0
ENDCHAR
STARTCHAR U+00B3
ENCODING 179
SWIDTH 1250 0
DWIDTH 15 0
BBX 15 5 0 3
BITMAP
07C0
0060
03C0
0060
07C0
ENDCHAR
STARTCHAR U+00B4
ENCODING 180
SWIDTH 1250 0
DWIDTH 15 0
BBX 15 2 0 8
BITMAP
00E0
0700
ENDCHAR
STARTCHAR U+00B5
ENCODING 181
SWIDTH 1250 0
DWIDTH 15 0
BBX 15 6 0 -1
BITMAP
0E38
0E38
1C70
1C70
37BC
3000
ENDCHAR
STARTCHAR U+00B6
ENCODING 182
SWIDTH 1250 0
DWIDTH 15 0
BBX 15 10 0 -2
BITMAP
03FC
0F98
1F98
1F98
0F98
0398
0198
0198
0198
0000
ENDCHAR
STARTCHAR U+00B7
ENCODING 183
SWIDTH 1250 0
DWIDTH 15 0
BBX 15 1 0 3
BITMAP
03C0
ENDCHAR
STARTCHAR U+00B8
ENCODING 184
SWIDTH 1250 0
DWIDTH 15 0
BBX 15 2 0 -2
BITMAP
0380
0E00
ENDCHAR
STARTCHAR U+00B9
ENCODING 185
SWIDTH 1250 0
DWIDTH 15 0
BBX 15 5 0 3
BITMAP
0180
0380
0180
0180
0180
ENDCHAR
STARTCHAR U+00BA
ENCODING 186
SWIDTH 1250 0
DWIDTH 15 0
BBX 15 7 0 1
BITMAP
07E0
0C30
0C30
0C30
07E0
0000
0FF0
ENDCHAR
STARTCHAR U+00BB
ENCODING 187
SWIDTH 1250 0
DWIDTH 15 0
BBX 15 5 0 0
BITMAP
1CE0
0738
018C
0738
1CE0
ENDCHAR
STARTCHAR U+00BC
ENCODING 188
SWIDTH 1250 0
DWIDTH 15 0
BBX 15 10 0 -1
BITMAP
0000
1800
3860
18C0
1980
1B38
0658
0C98
19FC
0018
ENDCHAR
STARTCHAR U+00BD
ENCODING 189
SWIDTH 1250 0
DWIDTH 15 0
BBX 15 10 0 -1
BITMAP
0000
1800
3860
18C0
1980
1B70
0618
0C30
1860
00F8
ENDCHAR
STARTCHAR U+00BE
ENCODING 190
SWIDTH 1250 0
DWIDTH 15 0
BBX 15 10 0 -1
BITMAP
0000
3C00
0660
3CC0
0780
3F38
0658
0C98
19FC
0018
ENDCHAR
STARTCHAR U+00BF
ENCODING 191
SWIDTH 1250 0
DWIDTH 15 0
BBX 15 7 0 -1
BITMAP
01C0
0000
01C0
0700
1C00
1C38
0FE0
ENDCHAR
STARTCHAR U+00C0
ENCODING 192
SWIDTH 1250 0
DWIDTH 15 0
BBX 15 10 0 0
BITMAP
0700
01C0
0000
03C0
07E0
0E70
1C38
1FF8
381C
381C
ENDCHAR
STARTCHAR U+00C1
ENCODING 193
SWIDTH 1250 0
DWIDTH 15 0
BBX 15 10 0 0
BITMAP
00E0
0380
0000
03C0
07E0
0E70
1C38
1FF8
381C
381C
ENDCHAR
STARTCHAR U+00C2
ENCODING 194
SWIDTH 1250 0
DWIDTH 15 0
BBX 15 10 0 0
BITMAP
07E0
0C30
0000
03C0
07E0
0E70
1C38
1FF8
381C
381C
ENDCHAR
STARTCHAR U+00C3
ENCODING 195
SWIDTH 1250 0
DWIDTH 15 0
BBX 15 10 0 0
BITMAP
078C
18F0
0000
03C0
07E0
0E70
1C38
1FF8
381C
381C
ENDCHAR
STARTCHAR U+00C4
ENCODING 196
SWIDTH 1250 0
DWIDTH 15 0
BBX 15 9 0 0
BITMAP
1C38
0000
03C0
07E0
0E70
1C38
1FF8
381C
381C
ENDCHAR
STARTCHAR U+00C5
ENCODING 197
SWIDTH 1250 0
DWIDTH 15 0
BBX 15 10 0 0
BITMAP
03C0
0660
03C0
03C0
07E0
0E70
1C38
1FF8
381C
381C
ENDCHAR
STARTCHAR U+00C6
ENCODING 198
SWIDTH 1250 0
DWIDTH 15 0
BBX 15 7 0 0
BITMAP
07FC
0CE0
1CE0
1CFC
3FE0
38E0
38FC
ENDCHAR
STARTCHAR U+00C7
ENCODING 199
SWIDTH 1250 0
DWIDTH 15 0
BBX 15 9 0 -2
BITMAP
07F0
1C1C
3800
3800
3800
1C1C
07F0
00C0
0700
ENDCHAR
STARTCHAR U+00C8
ENCODING 200
SWIDTH 1250 0
DWIDTH 15 0
BBX 15 10 0 0
BITMAP
0380
00E0
0000
1FF8
1C00
1C00
1FE0
1C00
1C00
1FF8
ENDCHAR
STARTCHAR U+00C9
ENCODING 201
SWIDTH 1250 0
DWIDTH 15 0
BBX 15 10 0 0
BITMAP
0070
01C0
0000
1FF8
1C00
1C00
1FE0
1C00
1C00
1FF8
ENDCHAR
STARTCHAR U+00CA
ENCODING 202
SWIDTH 1250 0
DWIDTH 15 0
BBX 15 10 0 0
BITMAP
03E0
0630
0000
1FF8
1C00
1C00
1FE0
1C00
1C00
1FF8
ENDCHAR
STARTCHAR U+00CB
ENCODING 203
SWIDTH 1250 0
DWIDTH 15 0
BBX 15 9 0 0
BITMAP
0E38
0000
1FF8
1C00
1C00
1FE0
1C00
1C00
1FF8
ENDCHAR
STARTCHAR U+00CC
ENCODING 204
SWIDTH 1250 0
DWIDTH 15 0
BBX 15 10 0 0
BITMAP
0700
01C0
0000
0FF8
01C0
01C0
01C0
01C0
01C0
0FF8
ENDCHAR
STARTCHAR U+00CD
ENCODING 205
SWIDTH 1250 0
DWIDTH 15 0
BBX 15 10 0 0
BITMAP
0070
01C0
0000
0FF8
01C0
01C0
01C0
01C0
01C0
0FF8
ENDCHAR
STARTCHAR U+00CE
ENCODING 206
SWIDTH 1250 0
DWIDTH 15 0
BBX 15 10 0 0
BITMAP
03E0
0630
0000
0FF8
01C0
01C0
01C0
01C0
01C0
0FF8
ENDCHAR
STARTCHAR U+00CF
ENCODING 207
SWIDTH 1250 0
DWIDTH 15 0
BBX 15 9 0 0
BITMAP
0E38
0000
0FF8
01C0
01C0
01C0
01C0
01C0
0FF8
ENDCHAR
STARTCHAR U+00D0
ENCODING 208
SWIDTH 1250 0
DWIDTH 15 0
BBX 15 7 0 0
BITMAP
3FE0
1C38
1C1C
3F1C
1C1C
1C38
3FE0
ENDCHAR
STARTCHAR U+00D1
ENCODING 209
SWIDTH 1250 0
DWIDTH 15 0
BBX 15 10 0 0
BITMAP
078C
18F0
0000
381C
3C1C
3F1C
3B9C
38FC
387C
381C
ENDCHAR
STARTCHAR U+00D2
ENCODING 210
SWIDTH 1250 0
DWIDTH 15 0
BBX 15 10 0 0
BITMAP
0700
01C0
0000
07E0
1C38
381C
381C
381C
1C38
07E0
ENDCHAR
STARTCHAR U+00D3
ENCODING 211
SWIDTH 1250 0
DWIDTH 15 0
BBX 15 10 0 0
BITMAP
0070
01C0
0000
07E0
1C38
381C
381C
381C
1C38
07E0
ENDCHAR
STARTCHAR U+00D4
ENCODING 212
SWIDTH 1250 0
DWIDTH 15 0
BBX 15 10 0 0
BITMAP
07E0
0C30
0000
07E0
1C38
381C
381C
381C
1C38
07E0
ENDCHAR
STARTCHAR U+00D5
ENCODING 213
SWIDTH 1250 0
DWIDTH 15 0
BBX 15 10 0 0
BITMAP
078C
18F0
0000
07E0
1C38
381C
381C
381C
1C38
07E0
ENDCHAR
STARTCHAR U+00D6
ENCODING 214
SWIDTH 1250 0
DWIDTH 15 0
BBX 15 9 0 0
BITMAP
1C38
0000
07E0
1C38
381C
381C
381C
1C38
07E0
ENDCHAR
STARTCHAR U+00D7
ENCODING 215
SWIDTH 1250 0
DWIDTH 15 0
BBX 15 7 0 0
BITMAP
0C30
0660
03C0
03C0
0660
0C30
0000
ENDCHAR
STARTCHAR U+00D8
ENCODING 216
SWIDTH 1250 0
DWIDTH 15 0
BBX 15 9 0 -1
BITMAP
0018
07F8
1C78
38DC
399C
3B1C
1E38
1FE0
1800
ENDCHAR
STARTCHAR U+00D9
ENCODING 217
SWIDTH 1250 0
DWIDTH 15 0
BBX 15 10 0 0
BITMAP
0700
01C0
0000
381C
381C
381C
381C
381C
381C
0FF0
ENDCHAR
STARTCHAR U+00DA
ENCODING 218
SWIDTH 1250 0
DWIDTH 15 0
BBX 15 10 0 0
BITMAP
00E0
0380
0000
381C
381C
381C
381C
381C
381C
0FF0
ENDCHAR
STARTCHAR U+00DB
ENCODING 219
SWIDTH 1250 0
DWIDTH 15 0
BBX 15 10 0 0
BITMAP
07E0
0C30
0000
381C
381C
381C
381C
381C
381C
0FF0
ENDCHAR
STARTCHAR U+00DC
ENCODING 220
SWIDTH 1250 0
DWIDTH 15 0
BBX 15 9 0 0
BITMAP
1C38
0000
381C
381C
381C
381C
381C
381C
0FF0
ENDCHAR
STARTCHAR U+00DD
ENCODING 221
SWIDTH 1250 0
DWIDTH 15 0
BBX 15 10 0 0
BITMAP
0070
01C0
0000
1C1C
1C1C
0E38
07F0
01C0
01C0
01C0
ENDCHAR
STARTCHAR U+00DE
ENCODING 222
SWIDTH 1250 0
DWIDTH 15 0
BBX 15 7 0 0
BITMAP
3C00
1FE0
1C38
1C1C
1C38
1FE0
3C00
ENDCHAR
STARTCHAR U+00DF
ENCODING 223
SWIDTH 1250 0
DWIDTH 15 0
BBX 15 8 0 -1
BITMAP
07F0
0E1C
1C1C
1CF0
1C1C
1C1C
38F0
3800
ENDCHAR
STARTCHAR U+00E0
ENCODING 224
SWIDTH 1250 0
DWIDTH 15 0
BBX 15 8 0 0
BITMAP
0380
00E0
0000
07E0
0038
0FF8
1C38
0FDC
ENDCHAR
STARTCHAR U+00E1
ENCODING 225
SWIDTH 1250 0
DWIDTH 15 0
BBX 15 8 0 0
BITMAP
0070
01C0
0000
07E0
0038
0FF8
1C38
0FDC
ENDCHAR
STARTCHAR U+00E2
ENCODING 226
SWIDTH 1250 0
DWIDTH 15 0
BBX 15 8 0 0
BITMAP
03C0
0C30
0000
07E0
0038
0FF8
1C38
0FDC
ENDCHAR
STARTCHAR U+00E3
ENCODING 227
SWIDTH 1250 0
DWIDTH 15 0
BBX 15 8 0 0
BITMAP
078C
18F0
0000
07E0
0038
0FF8
1C38
0FDC
ENDCHAR
STARTCHAR U+00E4
ENCODING 228
SWIDTH 1250 0
DWIDTH 15 0
BBX 15 7 0 0
BITMAP
0E38
0000
07E0
0038
0FF8
1C38
0FDC
ENDCHAR
STARTCHAR U+00E5
ENCODING 229
SWIDTH 1250 0
DWIDTH 15 0
BBX 15 9 0 0
BITMAP
03E0
0630
03E0
0000
07E0
0038
0FF8
1C38
0FDC
ENDCHAR
STARTCHAR U+00E6
ENCODING 230
SWIDTH 1250 0
DWIDTH 15 0
BBX 15 5 0 0
BITMAP
0F78
01CC
1FFC
39C0
1F7C
ENDCHAR
STARTCHAR U+00E7
ENCODING 231
SWIDTH 1250 0
DWIDTH 15 0
BBX 15 7 0 -2
BITMAP
07F0
1C1C
3800
1C1C
07F0
0180
0E00
ENDCHAR
STARTCHAR U+00E8
ENCODING 232
SWIDTH 1250 0
DWIDTH 15 0
BBX 15 8 0 0
BITMAP
0700
01C0
0000
07F0
1C1C
3FFC
1C00
07F8
ENDCHAR
STARTCHAR U+00E9
ENCODING 233
SWIDTH 1250 0
DWIDTH 15 0
BBX 15 8 0 0
BITMAP
0070
01C0
0000
07F0
1C1C
3FFC
1C00
07F8
ENDCHAR
STARTCHAR U+00EA
ENCODING 234
SWIDTH 1250 0
DWIDTH 15 0
BBX 15 8 0 0
BITMAP
07F0
0C18
0000
07F0
1C1C
3FFC
1C00
07F8
ENDCHAR
STARTCHAR U+00EB
ENCODING 235
SWIDTH 1250 0
DWIDTH 15 0
BBX 15 7 0 0
BITMAP
0E38
0000
07F0
1C1C
3FFC
1C00
07F8
ENDCHAR
STARTCHAR U+00EC
ENCODING 236
SWIDTH 1250 0
DWIDTH 15 0
BBX 15 8 0 0
BITMAP
0700
01C0
0000
07C0
01C0
01C0
01C0
0FF8
ENDCHAR
STARTCHAR U+00ED
ENCODING 237
SWIDTH 1250 0
DWIDTH 15 0
BBX 15 8 0 0
BITMAP
00E0
0380
0000
07C0
01C0
01C0
01C0
0FF8
ENDCHAR
STARTCHAR U+00EE
ENCODING 238
SWIDTH 1250 0
DWIDTH 15 0
BBX 15 8 0 0
BITMAP
07E0
0C30
0000
07C0
01C0
01C0
01C0
0FF8
ENDCHAR
STARTCHAR U+00EF
ENCODING 239
SWIDTH 1250 0
DWIDTH 15 0
BBX 15 7 0 0
BITMAP
0E70
0000
07C0
01C0
01C0
01C0
0FF8
ENDCHAR
STARTCHAR U+00F0
ENCODING 240
SWIDTH 1250 0
DWIDTH 15 0
BBX 15 9 0 0
BITMAP
0060
0FC0
01F0
0318
07FC
1C1C
380C
1C1C
07F0
ENDCHAR
STARTCHAR U+00F1
ENCODING 241
SWIDTH 1250 0
DWIDTH 15 0
BBX 15 8 0 0
BITMAP
078C
18F0
0000
3BF8
3C1C
381C
381C
381C
ENDCHAR
STARTCHAR U+00F2
ENCODING 242
SWIDTH 1250 0
DWIDTH 15 0
BBX 15 8 0 0
BITMAP
0700
01C0
0000
07E0
1C38
381C
1C38
07E0
ENDCHAR
STARTCHAR U+00F3
ENCODING 243
SWIDTH 1250 0
DWIDTH 15 0
BBX 15 8 0 0
BITMAP
0070
01C0
0000
07E0
1C38
381C
1C38
07E0
ENDCHAR
STARTCHAR U+00F4
ENCODING 244
SWIDTH 1250 0
DWIDTH 15 0
BBX 15 8 0 0
BITMAP
07E0
0C30
0000
07E0
1C38
381C
1C38
07E0
ENDCHAR
STARTCHAR U+00F5
ENCODING 245
SWIDTH 1250 0
DWIDTH 15 0
BBX 15 8 0 0
BITMAP
078C
18F0
0000
07E0
1C38
381C
1C38
07E0
ENDCHAR
STARTCHAR U+00F6
ENCODING 246
SWIDTH 1250 0
DWIDTH 15 0
BBX 15 7 0 0
BITMAP
1C38
0000
07E0
1C38
381C
1C38
07E0
ENDCHAR
STARTCHAR U+00F7
ENCODING 247
SWIDTH 1250 0
DWIDTH 15 0
BBX 15 7 0 0
BITMAP
01C0
01C0
0000
1FFC
0000
01C0
01C0
ENDCHAR
STARTCHAR U+00F8
ENCODING 248
SWIDTH 1250 0
DWIDTH 15 0
BBX 15 7 0 -1
BITMAP
0018
07F8
1C78
399C
1E38
1FE0
1800
ENDCHAR
STARTCHAR U+00F9
ENCODING 249
SWIDTH 1250 0
DWIDTH 15 0
BBX 15 8 0 0
BITMAP
0700
01C0
0000
381C
381C
381C
3C3C
0FDC
ENDCHAR
STARTCHAR U+00FA
ENCODING 250
SWIDTH 1250 0
DWIDTH 15 0
BBX 15 8 0 0
BITMAP
00E0
0380
0000
381C
381C
381C
3C3C
0FDC
ENDCHAR
STARTCHAR U+00FB
ENCODING 251
SWIDTH 1250 0
DWIDTH 15 0
BBX 15 8 0 0
BITMAP
07E0
0C30
0000
381C
381C
381C
3C3C
0FDC
ENDCHAR
STARTCHAR U+00FC
ENCODING 252
SWIDTH 1250 0
DWIDTH 15 0
BBX 15 7 0 0
BITMAP
1C38
0000
381C
381C
381C
3C3C
0FDC
ENDCHAR
STARTCHAR U+00FD
ENCODING 253
SWIDTH 1250 0
DWIDTH 15 0
BBX 15 10 0 -2
BITMAP
0070
01C0
0000
381C
1C38
0E70
06E0
03C0
0380
1E00
ENDCHAR
STARTCHAR U+00FE
ENCODING 254
SWIDTH 1250 0
DWIDTH 15 0
BBX 15 9 0 -2
BITMAP
3800
3800
3FE0
3838
381C
3838
3FE0
3800
3800
ENDCHAR
STARTCHAR U+00FF
ENCODING 255
SWIDTH 1250 0
DWIDTH 15 0
BBX 15 9 0 -2
BITMAP
1C70
0000
3838
1C70
0EE0
07C0
0380
0700
3C00
ENDCHAR
STARTCHAR U+2400
ENCODING 9216
SWIDTH 1250 0
DWIDTH 15 0
BBX 15 10 0 -1
BITMAP
3300
3B00
3700
3700
3300
0000
00CC
00CC
00CC
0078
ENDCHAR
STARTCHAR U+25C6
ENCODING 9670
SWIDTH 1250 0
DWIDTH 15 0
BBX 15 7 0 0
BITMAP
0180
03C0
07E0
0FF0
07E0
03C0
0180
ENDCHAR
STARTCHAR U+2592
ENCODING 9618
SWIDTH 1250 0
DWIDTH 15 0
BBX 15 10 0 -1
BITMAP
E738
E738
39CE
39CE
E738
E738
39CE
39CE
E738
E738
ENDCHAR
STARTCHAR U+2409
ENCODING 9225
SWIDTH 1250 0
DWIDTH 15 0
BBX 15 10 0 -1
BITMAP
3300
3300
3F00
3300
3300
00FC
0030
0030
0030
0030
ENDCHAR
STARTCHAR U+240C
ENCODING 9228
SWIDTH 1250 0
DWIDTH 15 0
BBX 15 10 0 -1
BITMAP
3E00
3000
3E00
3000
3000
00F8
00C0
00F8
00C0
00C0
ENDCHAR
STARTCHAR U+240D
ENCODING 9229
SWIDTH 1250 0
DWIDTH 15 0
BBX 15 10 0 -1
BITMAP
1E00
3000
3000
3000
1E00
0078
006C
006C
0078
006C
ENDCHAR
STARTCHAR U+240A
ENCODING 9226
SWIDTH 1250 0
DWIDTH 15 0
BBX 15 10 0 -1
BITMAP
3000
3000
3000
3000
3C00
007C
0060
007C
0060
0060
ENDCHAR
STARTCHAR U+00B0
ENCODING 176
SWIDTH 1250 0
DWIDTH 15 0
BBX 15 4 0 4
BITMAP
0000
07E0
0C30
07E0
ENDCHAR
STARTCHAR U+00B1
ENCODING 177
SWIDTH 1250 0
DWIDTH 15 0
BBX 15 7 0 0
BITMAP
01C0
01C0
1FFC
01C0
01C0
0000
1FFC
ENDCHAR
STARTCHAR U+2424
ENCODING 9252
SWIDTH 1250 0
DWIDTH 15 0
BBX 15 10 0 -1
BITMAP
3300
3B00
3F00
3700
3300
0030
0030
0030
0030
003C
ENDCHAR
STARTCHAR U+240B
ENCODING 9227
SWIDTH 1250 0
DWIDTH 15 0
BBX 15 10 0 -1
BITMAP
3300
3300
3300
1E00
0C00
00FC
0030
0030
0030
0030
ENDCHAR
STARTCHAR U+2518
ENCODING 9496
SWIDTH 1250 0
DWIDTH 15 0
BBX 15 6 0 4
BITMAP
0180
0180
0180
0180
0180
FF80
ENDCHAR
STARTCHAR U+2510
ENCODING 9488
SWIDTH 1250 0
DWIDTH 15 0
BBX 15 7 0 -2
BITMAP
FF80
0180
0180
0180
0180
0180
0180
ENDCHAR
STARTCHAR U+250C
ENCODING 9484
SWIDTH 1250 0
DWIDTH 15 0
BBX 15 7 0 -2
BITMAP
01FE
0180
0180
0180
0180
0180
0180
ENDCHAR
STARTCHAR U+2514
ENCODING 9492
SWIDTH 1250 0
DWIDTH 15 0
BBX 15 6 0 4
BITMAP
0180
0180
0180
0180
0180
01FE
ENDCHAR
STARTCHAR U+253C
ENCODING 9532
SWIDTH 1250 0
DWIDTH 15 0
BBX 15 12 0 -2
BITMAP
0180
0180
0180
0180
0180
FFFE
0180
0180
0180
0180
0180
0180
ENDCHAR
STARTCHAR U+23BA
ENCODING 9146
SWIDTH 1250 0
DWIDTH 15 0
BBX 15 1 0 9
BITMAP
FFFE
ENDCHAR
STARTCHAR U+23BB
ENCODING 9147
SWIDTH 1250 0
DWIDTH 15 0
BBX 15 1 0 7
BITMAP
FFFE
ENDCHAR
STARTCHAR U+2500
ENCODING 9472
SWIDTH 1250 0
DWIDTH 15 0
BBX 15 1 0 4
BITMAP
FFFE
ENDCHAR
STARTCHAR U+23BC
ENCODING 9148
SWIDTH 1250 0
DWIDTH 15 0
BBX 15 1 0 2
BITMAP
FFFE
ENDCHAR
STARTCHAR U+23BD
ENCODING 9149
SWIDTH 1250 0
DWIDTH 15 0
BBX 15 1 0 -1
BITMAP
FFFE
ENDCHAR
STARTCHAR U+251C
ENCODING 9500
SWIDTH 1250 0
DWIDTH 15 0
BBX 15 12 0 -2
BITMAP
0180
0180
0180
0180
0180
01FE
0180
0180
0180
0180
0180
0180
ENDCHAR
STARTCHAR U+2524
ENCODING 9508
SWIDTH 1250 0
DWIDTH 15 0
BBX 15 12 0 -2
BITMAP
0180
0180
0180
0180
0180
FF80
0180
0180
0180
0180
0180
0180
ENDCHAR
STARTCHAR U+2534
ENCODING 9524
SWIDTH 1250 0
DWIDTH 15 0
BBX 15 6 0 4
BITMAP
0180
0180
0180
0180
0180
FFFE
ENDCHAR
STARTCHAR U+252C
ENCODING 9516
SWIDTH 1250 0
DWIDTH 15 0
BBX 15 7 0 -2
BITMAP
FFFE
0180
0180
0180
0180
0180
0180
ENDCHAR
STARTCHAR U+2502
ENCODING 9474
SWIDTH 1250 0
DWIDTH 15 0
BBX 15 12 0 -2
BITMAP
0180
0180
0180
0180
0180
0180
0180
0180
0180
0180
0180
0180
ENDCHAR
STARTCHAR U+2264
ENCODING 8804
SWIDTH 1250 0
DWIDTH 15 0
BBX 15 7 0 0
BITMAP
0078
01E0
0780
1E00
1FF8
0000
1FF8
ENDCHAR
STARTCHAR U+2265
ENCODING 8805
SWIDTH 1250 0
DWIDTH 15 0
BBX 15 7 0 0
BITMAP
1E00
0780
01E0
0078
1FF8
0000
1FF8
ENDCHAR
STARTCHAR U+03C0
ENCODING 960
SWIDTH 1250 0
DWIDTH 15 0
BBX 15 5 0 0
BITMAP
3FFC
0E38
0E38
0E38
1C38
ENDCHAR
STARTCHAR U+2260
ENCODING 8800
SWIDTH 1250 0
DWIDTH 15 0
BBX 15 7 0 0
BITMAP
0030
0060
1FF8
0180
1FF8
0600
0C00
ENDCHAR
STARTCHAR U+00A3
ENCODING 163
SWIDTH 1250 0
DWIDTH 15 0
BBX 15 7 0 0
BITMAP
03F0
0E18
0E00
3F80
0E00
0E0C
39F8
ENDCHAR
STARTCHAR U+00B7
ENCODING 183
SWIDTH 1250 0
DWIDTH 15 0
BBX 15 1 0 3
BITMAP
0180
ENDCHAR
STARTCHAR U+0152
ENCODING 338
SWIDTH 1250 0
DWIDTH 15 0
BBX 15 7 0 0
BITMAP
07FC
1CE0
38E0
38F8
38E0
1CE0
07FC
ENDCHAR
STARTCHAR U+0178
ENCODING 376
SWIDTH 1250 0
DWIDTH 15 0
BBX 15 9 0 0
BITMAP
0E38
0000
1C1C
1C1C
0E38
03E0
01C0
01C0
01C0
ENDCHAR
STARTCHAR U+0153
ENCODING 339
SWIDTH 1250 0
DWIDTH 15 0
BBX 15 5 0 0
BITMAP
07B8
1CCC
38FC
1CC0
07B8
ENDCHAR
STARTCHAR U+25A1
ENCODING 9633
SWIDTH 1250 0
DWIDTH 15 0
BBX 15 12 0 -2
BITMAP
FF80
8080
8080
8080
8080
8080
8080
8080
8080
8080
8080
FF80
ENDCHAR
STARTCHAR U+25A3
ENCODING 9635
SWIDTH 1250 0
DWIDTH 15 0
BBX 15 12 0 -2
BITMAP
FF80
8080
8080
9C80
9C80
9C80
9C80
9C80
9C80
8080
8080
FF80
ENDCHAR
STARTCHAR U+2426
ENCODING 9254
SWIDTH 1250 0
DWIDTH 15 0
BBX 15 11 0 -2
BITMAP
07E0
1FF8
3C3C
3C00
3C00
1FC0
07F0
00F0
0000
00F0
00F0
ENDCHAR
ENDFONT
